<svg xmlns="http://www.w3.org/2000/svg" viewBox="0 0 100 100">
  <defs>
    <linearGradient id="grad" x1="0%" y1="0%" x2="100%" y2="100%">
      <stop offset="0%" style="stop-color:#3b82f6"/>
      <stop offset="100%" style="stop-color:#8b5cf6"/>
    </linearGradient>
  </defs>
  <rect width="100" height="100" rx="20" fill="url(#grad)"/>
  <g fill="none" stroke="white" stroke-width="2" transform="translate(12, 12) scale(0.76)">
    <!-- Shield -->
    <path d="M50 15 L50 55 Q50 75 50 80 Q75 70 75 55 L75 15 Z M25 15 L25 55 Q25 75 50 80 Q75 75 75 55 L75 15 Z" stroke-width="3"/>
    <!-- Simplified shield -->
    <path d="M20 15 L20 52 Q20 72 50 82 Q80 72 80 52 L80 15 Z" stroke-width="4"/>
    <!-- Three circles -->
    <circle cx="50" cy="38" r="9" stroke-width="3"/>
    <circle cx="35" cy="58" r="9" stroke-width="3"/>
    <circle cx="65" cy="58" r="9" stroke-width="3"/>
  </g>
</svg>
